<svg width="30" height="30" viewBox="0 0 30 30" fill="none" xmlns="http://www.w3.org/2000/svg">
<g clip-path="url(#clip0)">
<path d="M27.8571 19.2856C27.2653 19.2856 26.7856 19.7653 26.7856 20.3571V26.7857C26.7856 27.3774 26.306 27.8571 25.7142 27.8571H4.28573C3.69397 27.8571 3.21428 27.3774 3.21428 26.7857V20.3571C3.21428 19.7653 2.73458 19.2856 2.14283 19.2856C1.55107 19.2856 1.07138 19.7653 1.07138 20.3571V26.7857C1.07138 28.5609 2.51046 29.9999 4.28566 29.9999H25.7143C27.4895 29.9999 28.9285 28.5609 28.9285 26.7857V20.3571C28.9285 19.7653 28.4489 19.2856 27.8571 19.2856Z" fill="#A5A58D"/>
<path d="M21.0904 18.5282C20.6752 18.1272 20.017 18.1272 19.6018 18.5282L16.0714 22.0564V1.07145C16.0714 0.479694 15.5917 0 15 0C14.4082 0 13.9285 0.479694 13.9285 1.07145V22.0564L10.4003 18.5282C9.97465 18.1171 9.29638 18.1289 8.88531 18.5545C8.48428 18.9697 8.48428 19.628 8.88531 20.0432L14.2424 25.4003C14.6603 25.8192 15.3387 25.8201 15.7577 25.4023C15.7583 25.4016 15.7589 25.401 15.7596 25.4003L21.1167 20.0432C21.5279 19.6175 21.5161 18.9393 21.0904 18.5282Z" fill="#A5A58D"/>
</g>
<defs>
<clipPath id="clip0">
<rect width="30" height="30" fill="white"/>
</clipPath>
</defs>
</svg>
