<svg width="20" height="35" viewBox="0 0 20 35" fill="none" xmlns="http://www.w3.org/2000/svg">
<path d="M18.4873 0.303201L14.0118 0.296021C8.9837 0.296021 5.73434 3.62975 5.73434 8.78958V12.7057H1.23443C0.845583 12.7057 0.530701 13.0209 0.530701 13.4098V19.0838C0.530701 19.4726 0.845942 19.7875 1.23443 19.7875H5.73434V34.1048C5.73434 34.4936 6.04922 34.8085 6.43807 34.8085H12.3092C12.698 34.8085 13.0129 34.4932 13.0129 34.1048V19.7875H18.2743C18.6632 19.7875 18.9781 19.4726 18.9781 19.0838L18.9802 13.4098C18.9802 13.2231 18.9059 13.0443 18.7741 12.9121C18.6424 12.78 18.4628 12.7057 18.2761 12.7057H13.0129V9.38596C13.0129 7.79036 13.3931 6.98036 15.4716 6.98036L18.4865 6.97928C18.875 6.97928 19.1899 6.66404 19.1899 6.27555V1.00693C19.1899 0.618802 18.8754 0.303919 18.4873 0.303201Z" fill="black"/>
</svg>