<svg width="27" height="27" viewBox="0 0 27 27" fill="none" xmlns="http://www.w3.org/2000/svg">
<path fill-rule="evenodd" clip-rule="evenodd" d="M13.4213 0.871399C9.9753 0.871399 9.54284 0.886466 8.18941 0.948058C6.83863 1.00991 5.91661 1.22377 5.10984 1.53754C4.27531 1.86162 3.5674 2.29514 2.86214 3.00067C2.15635 3.70593 1.72283 4.41384 1.39769 5.2481C1.08312 6.05513 0.869005 6.97742 0.808206 8.32768C0.747672 9.68111 0.731812 10.1138 0.731812 13.5598C0.731812 17.0057 0.747143 17.4369 0.808471 18.7903C0.870591 20.1411 1.08444 21.0631 1.39795 21.8699C1.7223 22.7044 2.15582 23.4123 2.86135 24.1176C3.56635 24.8234 4.27425 25.258 5.10825 25.582C5.91555 25.8958 6.83784 26.1097 8.18836 26.1715C9.54178 26.2331 9.97398 26.2482 13.4197 26.2482C16.8659 26.2482 17.297 26.2331 18.6505 26.1715C20.0012 26.1097 20.9243 25.8958 21.7316 25.582C22.5659 25.258 23.2727 24.8234 23.9777 24.1176C24.6835 23.4123 25.117 22.7044 25.4422 21.8702C25.7541 21.0631 25.9682 20.1408 26.0317 18.7906C26.0925 17.4371 26.1083 17.0057 26.1083 13.5598C26.1083 10.1138 26.0925 9.68137 26.0317 8.32794C25.9682 6.97716 25.7541 6.05513 25.4422 5.24836C25.117 4.41384 24.6835 3.70593 23.9777 3.00067C23.2719 2.29488 22.5662 1.86136 21.7308 1.53754C20.922 1.22377 19.9994 1.00991 18.6486 0.948058C17.2952 0.886466 16.8643 0.871399 13.4173 0.871399H13.4213ZM12.283 3.15792C12.6208 3.15739 12.9977 3.15792 13.4212 3.15792C16.809 3.15792 17.2105 3.17008 18.5484 3.23088C19.7855 3.28744 20.4569 3.49416 20.9042 3.66783C21.4963 3.89781 21.9185 4.17272 22.3623 4.61682C22.8064 5.06091 23.0813 5.48386 23.3118 6.07598C23.4855 6.52272 23.6925 7.19415 23.7488 8.43126C23.8096 9.76883 23.8228 10.1706 23.8228 13.5568C23.8228 16.9431 23.8096 17.3449 23.7488 18.6824C23.6922 19.9195 23.4855 20.591 23.3118 21.0377C23.0818 21.6298 22.8064 22.0515 22.3623 22.4953C21.9182 22.9394 21.4966 23.2143 20.9042 23.4443C20.4574 23.6187 19.7855 23.8249 18.5484 23.8815C17.2108 23.9423 16.809 23.9555 13.4212 23.9555C10.0331 23.9555 9.63161 23.9423 8.29404 23.8815C7.05692 23.8244 6.38549 23.6177 5.93796 23.444C5.34584 23.214 4.92289 22.9391 4.4788 22.495C4.0347 22.0509 3.75979 21.629 3.52928 21.0367C3.35561 20.5899 3.14863 19.9185 3.09233 18.6814C3.03153 17.3438 3.01937 16.942 3.01937 13.5537C3.01937 10.1653 3.03153 9.76566 3.09233 8.42809C3.1489 7.19097 3.35561 6.51955 3.52928 6.07228C3.75926 5.48016 4.0347 5.05721 4.4788 4.61312C4.92289 4.16902 5.34584 3.89411 5.93796 3.6636C6.38523 3.48914 7.05692 3.28295 8.29404 3.22612C9.46454 3.17325 9.91815 3.15739 12.283 3.15474V3.15792ZM20.1942 5.26472C19.3536 5.26472 18.6716 5.94593 18.6716 6.7868C18.6716 7.62741 19.3536 8.30941 20.1942 8.30941C21.0348 8.30941 21.7168 7.62741 21.7168 6.7868C21.7168 5.9462 21.0348 5.26472 20.1942 5.26472ZM13.4213 7.04374C9.8228 7.04374 6.90526 9.96127 6.90526 13.5598C6.90526 17.1582 9.8228 20.0744 13.4213 20.0744C17.0198 20.0744 19.9362 17.1582 19.9362 13.5598C19.9362 9.96127 17.0198 7.04374 13.4213 7.04374ZM13.4212 9.33029C15.757 9.33029 17.6507 11.2238 17.6507 13.5598C17.6507 15.8955 15.757 17.7892 13.4212 17.7892C11.0852 17.7892 9.19177 15.8955 9.19177 13.5598C9.19177 11.2238 11.0852 9.33029 13.4212 9.33029Z" fill="black"/>
</svg>