<svg width="176" height="27" viewBox="0 0 176 27" fill="none" xmlns="http://www.w3.org/2000/svg">
<path d="M18.9473 0.511719L19.7734 0.476562C20.0781 0.476562 20.2305 0.59375 20.2305 0.828125C20.2305 0.898438 20.2188 0.951172 20.1953 0.986328C14.5938 9.22461 9.36133 17.2988 4.49805 25.209C4.24023 25.6309 4.01172 25.8711 3.8125 25.9297C3.80078 25.9297 3.74219 25.9531 3.63672 26C3.05078 26.2227 2.64062 26.334 2.40625 26.334C2.17188 26.334 2.04297 26.3398 2.01953 26.3516C1.91406 26.4688 1.78516 26.5273 1.63281 26.5273C1.49219 26.5273 1.39844 26.5215 1.35156 26.5098C1.30469 26.5098 1.16992 26.4629 0.947266 26.3691C0.724609 26.2871 0.613281 26.2227 0.613281 26.1758C0.613281 25.6016 0.636719 25.2559 0.683594 25.1387C0.929688 24.3066 2.2832 21.9629 4.74414 18.1074C7.20508 14.2402 9.70703 10.4727 12.25 6.80469C14.8047 3.125 16.3516 1.07422 16.8906 0.652344C17.0547 0.523438 17.2715 0.458984 17.541 0.458984L18.9473 0.511719ZM26.8398 12.4648C26.8398 13.2734 26.3887 14.457 25.4863 16.0156C24.584 17.5625 23.4238 19.1328 22.0059 20.7266C20.5996 22.3203 19.1055 23.7031 17.5234 24.875C15.9414 26.0352 14.7051 26.6152 13.8145 26.6152C13.334 26.6152 12.8945 26.4395 12.4961 26.0879C12.0977 25.7363 11.8984 25.1797 11.8984 24.418C11.8984 23.6445 12.2617 22.4316 12.9883 20.7793C13.7148 19.127 14.4297 17.7324 15.1328 16.5957C14.5117 17.0527 14.1309 17.2812 13.9902 17.2812C13.8613 17.2812 13.6914 17.1289 13.4805 16.8242C13.2812 16.5195 13.1816 16.2852 13.1816 16.1211C13.1816 15.9453 13.2109 15.8164 13.2695 15.7344C15.5781 13.168 17.207 11.8848 18.1562 11.8848C18.5547 11.8848 18.8887 12.002 19.1582 12.2363C19.4277 12.4707 19.5625 12.752 19.5625 13.0801C19.5625 13.4082 19.1641 14.3516 18.3672 15.9102C17.5703 17.4688 16.7734 19.0449 15.9766 20.6387C15.1797 22.2207 14.7812 23.2168 14.7812 23.627C14.7812 23.6973 14.8164 23.7324 14.8867 23.7324C15.1914 23.7324 16.0117 23.1289 17.3477 21.9219C18.6953 20.7031 19.7852 19.5723 20.6172 18.5293C21.4492 17.4863 22.1758 16.4375 22.7969 15.3828C23.4297 14.3281 23.7461 13.6367 23.7461 13.3086C23.7461 12.9805 23.6758 12.7109 23.5352 12.5C23.4062 12.2773 23.3418 12.043 23.3418 11.7969C23.3418 11.5391 23.5117 11.2578 23.8516 10.9531C24.2031 10.6367 24.6484 10.4785 25.1875 10.4785C26.2891 10.4785 26.8398 11.1406 26.8398 12.4648ZM38.7051 12.6406C39.5957 12.6406 40.041 12.9453 40.041 13.5547C40.041 13.8828 39.9648 14.123 39.8125 14.2754C39.6602 14.4277 39.332 14.9375 38.8281 15.8047C38.3359 16.6602 37.7852 17.7617 37.1758 19.1094C36.5781 20.4453 36.1914 21.5879 36.0156 22.5371C35.9805 22.6543 35.9629 22.8184 35.9629 23.0293C35.9629 23.6738 36.1387 23.9961 36.4902 23.9961C36.8418 23.9961 37.2578 23.832 37.7383 23.5039C38.2188 23.1641 38.6465 22.8066 39.0215 22.4316C39.3965 22.0449 39.7598 21.6523 40.1113 21.2539C40.4746 20.8555 40.6914 20.627 40.7617 20.5684C40.832 20.5098 40.9375 20.4805 41.0781 20.4805C41.3008 20.4805 41.4355 20.6504 41.4824 20.9902C41.5293 21.3301 41.5527 21.6816 41.5527 22.0449C41.5527 22.4082 41.5176 22.6602 41.4473 22.8008C41.1074 23.4688 40.3574 24.2715 39.1973 25.209C38.0488 26.1465 37 26.6152 36.0508 26.6152C35.1133 26.6152 34.4219 26.3281 33.9766 25.7539C33.5312 25.1797 33.3086 24.5469 33.3086 23.8555C33.3086 23.1523 33.4258 22.5371 33.6602 22.0098C32.6875 23.2754 31.5684 24.3477 30.3027 25.2266C29.0488 26.1055 28.0234 26.5449 27.2266 26.5449C26.4297 26.5449 25.7793 26.3047 25.2754 25.8242C24.6309 25.2266 24.3086 24.4004 24.3086 23.3457C24.3086 22.2793 24.543 21.2129 25.0117 20.1465C25.4922 19.0684 26.1191 18.0898 26.8926 17.2109C27.666 16.3203 28.5156 15.5117 29.4414 14.7852C31.3867 13.2617 33.1797 12.5 34.8203 12.5C35.4531 12.5 35.9688 12.6055 36.3672 12.8164C36.7656 13.0273 37.0176 13.291 37.123 13.6074C37.4043 13.1855 37.6387 12.9219 37.8262 12.8164C38.0254 12.6992 38.3184 12.6406 38.7051 12.6406ZM36.3672 14.5918C34.3633 14.5918 32.2891 15.7051 30.1445 17.9316C29.3828 18.7285 28.6797 19.6836 28.0352 20.7969C27.4023 21.9102 27.0859 22.6719 27.0859 23.082C27.0859 23.4922 27.2031 23.6973 27.4375 23.6973C27.7656 23.6973 28.6797 23.0527 30.1797 21.7637C31.6797 20.4629 32.6758 19.5078 33.168 18.8984C33.707 18.2188 34.7734 16.7832 36.3672 14.5918ZM49.1289 23.293C49.1289 23.8086 49.4805 24.0664 50.1836 24.0664C50.5586 24.0664 51.0273 23.8789 51.5898 23.5039C52.1641 23.1289 52.6797 22.7188 53.1367 22.2734C54.3555 21.0664 55.0469 20.4629 55.2109 20.4629C55.5156 20.4629 55.668 20.9023 55.668 21.7812C55.668 22.6602 55.3926 23.2637 54.8418 23.5918C53.166 25.1035 51.8711 26.0234 50.957 26.3516C50.4414 26.5273 49.873 26.6094 49.252 26.5977C48.6309 26.5859 48.0156 26.3164 47.4062 25.7891C46.7969 25.2617 46.4922 24.623 46.4922 23.873C46.4922 23.1113 46.6914 22.25 47.0898 21.2891C47.4883 20.3281 47.8926 19.5078 48.3027 18.8281C48.7246 18.1367 49.2402 17.3398 49.8496 16.4375C50.459 15.5234 50.7812 14.9551 50.8164 14.7324L50.7812 14.6973C50.3945 14.7324 49.4336 15.4941 47.8984 16.9824C46.375 18.4707 45.1152 19.7656 44.1191 20.8672C43.123 21.9688 41.9336 23.4395 40.5508 25.2793C40.1641 25.7832 39.8477 26.0352 39.6016 26.0352C39.3555 26.0352 39.0273 25.959 38.6172 25.8066C38.1953 25.6426 37.9375 25.5254 37.8438 25.4551C37.75 25.3848 37.7031 25.2793 37.7031 25.1387C37.7031 24.998 37.7441 24.8281 37.8262 24.6289C37.9082 24.418 37.9902 24.248 38.0723 24.1191C38.1426 23.9785 38.2656 23.7676 38.4414 23.4863C38.6172 23.2051 38.9629 22.6133 39.4785 21.7109C40.0059 20.7969 40.8086 19.4375 41.8867 17.6328C42.9648 15.8281 43.6094 14.7383 43.8203 14.3633C44.2656 13.5898 44.6289 13.0273 44.9102 12.6758C45.4375 12.0078 46.3281 11.6738 47.582 11.6738C47.8633 11.6738 48.0039 11.8496 48.0039 12.2012C48.0039 12.752 47.4941 13.7891 46.4746 15.3125L45.7363 16.4199C47.7637 14.1699 49.4746 12.7461 50.8691 12.1484C51.5488 11.8555 52.1582 11.709 52.6973 11.709C53.248 11.709 53.6816 11.8555 53.998 12.1484C54.3262 12.4414 54.4902 12.7695 54.4902 13.1328C54.4902 13.4844 54.3672 13.9121 54.1211 14.416C53.875 14.9082 53.623 15.3535 53.3652 15.752C53.1191 16.1387 52.791 16.6309 52.3809 17.2285C51.9707 17.8262 51.748 18.1543 51.7129 18.2129C51.6777 18.2598 51.584 18.4004 51.4316 18.6348C51.291 18.8574 51.1855 19.0215 51.1152 19.127C51.0449 19.2324 50.9277 19.4199 50.7637 19.6895C50.5996 19.9473 50.4648 20.1641 50.3594 20.3398C50.2656 20.5156 50.1426 20.7324 49.9902 20.9902C49.8496 21.248 49.7324 21.4707 49.6387 21.6582C49.5566 21.8457 49.4688 22.0508 49.375 22.2734C49.2109 22.6836 49.1289 23.0234 49.1289 23.293ZM90.543 0.546875L91.1758 0.722656C92.6641 0.945313 93.4082 1.39062 93.4082 2.05859C93.4082 2.24609 93.3379 2.4043 93.1973 2.5332C91.6152 3.95117 89.5117 5.48047 86.8867 7.12109C82.8789 9.61719 78.332 12.0312 73.2461 14.3633C74.9102 15.3125 77.166 16.8887 80.0137 19.0918C83.834 21.916 86.1836 23.3281 87.0625 23.3281C87.3672 23.3281 87.625 23.2461 87.8359 23.082C88.0586 22.9062 88.1816 22.8184 88.2051 22.8184C88.4043 22.8184 88.5039 22.9121 88.5039 23.0996C88.5039 23.2637 88.3047 23.7324 87.9062 24.5059C87.5195 25.2793 87.1855 25.7891 86.9043 26.0352C86.6348 26.2812 86.2012 26.4043 85.6035 26.4043C85.0059 26.4043 84.209 26.1113 83.2129 25.5254C82.2168 24.9395 81.127 24.207 79.9434 23.3281C78.7715 22.4375 77.5996 21.5352 76.4277 20.6211C73.4629 18.3359 71.4648 16.9824 70.4336 16.5605C66.8242 22.2559 64.9668 25.2031 64.8613 25.4023C64.7676 25.6016 64.6387 25.7656 64.4746 25.8945C64.3223 26.0117 64.2227 26.0703 64.1758 26.0703L63.4199 26.1758L62.8047 26.1406C62.6406 26.1406 62.5234 26.1641 62.4531 26.2109C62.3828 26.2695 62.3066 26.3105 62.2246 26.334C62.1426 26.3574 62.0723 26.3926 62.0137 26.4395C61.9551 26.498 61.8613 26.5273 61.7324 26.5273C61.6152 26.5273 61.4453 26.4277 61.2227 26.2285C61.0117 26.041 60.9062 25.877 60.9062 25.7363C60.9062 25.5957 60.9883 25.3496 61.1523 24.998C61.3281 24.6465 63.4902 21.3828 67.6387 15.207H67.3047C66.5195 15.207 66.127 14.9961 66.127 14.5742C66.127 14.1406 66.3203 13.7129 66.707 13.291C67.1055 12.8574 67.5039 12.6406 67.9023 12.6406C68.3008 12.6406 68.7402 12.6758 69.2207 12.7461C71.4355 9.47656 73.1406 6.91016 74.3359 5.04688C72.9766 6.32422 71.6875 6.96289 70.4688 6.96289C69.8828 6.96289 69.4199 6.76367 69.0801 6.36523C68.7402 5.95508 68.5703 5.49219 68.5703 4.97656C68.5703 4.46094 68.6992 4.03906 68.957 3.71094C69.2266 3.38281 69.4844 3.1543 69.7305 3.02539C69.9766 2.89648 70.1465 2.83203 70.2402 2.83203C70.334 2.83203 70.3809 2.87891 70.3809 2.97266L70.2402 3.39453C70.2402 3.55859 70.4922 3.64062 70.9961 3.64062C71.5 3.64062 72.2031 3.36523 73.1055 2.81445C74.0078 2.25195 74.8926 1.69531 75.7598 1.14453C76.627 0.582031 77.2773 0.300781 77.7109 0.300781C78.1445 0.300781 78.4258 0.353516 78.5547 0.458984C78.6953 0.552734 78.8184 0.617188 78.9238 0.652344C79.041 0.675781 79.1348 0.716797 79.2051 0.775391C79.2754 0.833984 79.334 0.910156 79.3809 1.00391C79.4277 1.08594 79.5156 1.17969 79.6445 1.28516C79.7734 1.39062 79.8379 1.53125 79.8379 1.70703C79.8379 1.88281 79.791 2.04687 79.6973 2.19922C78.209 4.44922 76.3809 7.28516 74.2129 10.707C77.1191 9.19531 80.4414 7.26172 84.1797 4.90625C87.918 2.53906 89.9395 1.14453 90.2441 0.722656C90.3145 0.605469 90.4141 0.546875 90.543 0.546875ZM100.721 12.6406C101.611 12.6406 102.057 12.9453 102.057 13.5547C102.057 13.8828 101.98 14.123 101.828 14.2754C101.676 14.4277 101.348 14.9375 100.844 15.8047C100.352 16.6602 99.8008 17.7617 99.1914 19.1094C98.5938 20.4453 98.207 21.5879 98.0312 22.5371C97.9961 22.6543 97.9785 22.8184 97.9785 23.0293C97.9785 23.6738 98.1543 23.9961 98.5059 23.9961C98.8574 23.9961 99.2734 23.832 99.7539 23.5039C100.234 23.1641 100.662 22.8066 101.037 22.4316C101.412 22.0449 101.775 21.6523 102.127 21.2539C102.49 20.8555 102.707 20.627 102.777 20.5684C102.848 20.5098 102.953 20.4805 103.094 20.4805C103.316 20.4805 103.451 20.6504 103.498 20.9902C103.545 21.3301 103.568 21.6816 103.568 22.0449C103.568 22.4082 103.533 22.6602 103.463 22.8008C103.123 23.4688 102.373 24.2715 101.213 25.209C100.064 26.1465 99.0156 26.6152 98.0664 26.6152C97.1289 26.6152 96.4375 26.3281 95.9922 25.7539C95.5469 25.1797 95.3242 24.5469 95.3242 23.8555C95.3242 23.1523 95.4414 22.5371 95.6758 22.0098C94.7031 23.2754 93.584 24.3477 92.3184 25.2266C91.0645 26.1055 90.0391 26.5449 89.2422 26.5449C88.4453 26.5449 87.7949 26.3047 87.291 25.8242C86.6465 25.2266 86.3242 24.4004 86.3242 23.3457C86.3242 22.2793 86.5586 21.2129 87.0273 20.1465C87.5078 19.0684 88.1348 18.0898 88.9082 17.2109C89.6816 16.3203 90.5312 15.5117 91.457 14.7852C93.4023 13.2617 95.1953 12.5 96.8359 12.5C97.4688 12.5 97.9844 12.6055 98.3828 12.8164C98.7812 13.0273 99.0332 13.291 99.1387 13.6074C99.4199 13.1855 99.6543 12.9219 99.8418 12.8164C100.041 12.6992 100.334 12.6406 100.721 12.6406ZM98.3828 14.5918C96.3789 14.5918 94.3047 15.7051 92.1602 17.9316C91.3984 18.7285 90.6953 19.6836 90.0508 20.7969C89.418 21.9102 89.1016 22.6719 89.1016 23.082C89.1016 23.4922 89.2188 23.6973 89.4531 23.6973C89.7812 23.6973 90.6953 23.0527 92.1953 21.7637C93.6953 20.4629 94.6914 19.5078 95.1836 18.8984C95.7227 18.2188 96.7891 16.7832 98.3828 14.5918ZM101.969 26.1055L101.107 26.0703H100.791C100.674 26.0352 100.551 25.9648 100.422 25.8594C100.281 25.7539 100.176 25.6777 100.105 25.6309C100.035 25.584 100 25.502 100 25.3848C100 25.2559 100.047 25.0391 100.141 24.7344C102.426 19.707 104.635 15.6875 106.768 12.6758C107.002 12.3477 107.377 12.1016 107.893 11.9375C108.42 11.7617 108.93 11.6738 109.422 11.6738C109.715 11.6738 109.861 11.9023 109.861 12.3594C109.861 12.4883 109.814 12.6641 109.721 12.8867C109.627 13.0977 109.393 13.4492 109.018 13.9414C108.643 14.4336 108.197 14.9961 107.682 15.6289C107.166 16.2617 106.873 16.625 106.803 16.7188C108.408 15.0547 109.855 13.8184 111.145 13.0098C112.445 12.1895 113.383 11.7793 113.957 11.7793C114.543 11.7793 114.988 11.9492 115.293 12.2891C115.609 12.6172 115.768 12.9746 115.768 13.3613C115.768 13.7363 115.738 14.0527 115.68 14.3105C115.633 14.5566 115.539 14.8203 115.398 15.1016C115.258 15.3711 115.135 15.6055 115.029 15.8047C114.936 15.9922 114.771 16.2441 114.537 16.5605C114.303 16.8652 114.139 17.0762 114.045 17.1934C113.963 17.3105 113.781 17.5332 113.5 17.8613C113.23 18.1895 113.084 18.3711 113.061 18.4062C113.389 18.0781 113.846 17.5918 114.432 16.9473C115.018 16.3027 115.51 15.7637 115.908 15.3301C116.318 14.8965 116.828 14.4102 117.438 13.8711C118.047 13.3203 118.615 12.875 119.143 12.5352C120.408 11.7383 121.691 11.3398 122.992 11.3398C123.438 11.3398 123.812 11.4805 124.117 11.7617C124.422 12.043 124.574 12.3828 124.574 12.7812C124.574 13.168 124.1 14.1055 123.15 15.5938C122.201 17.0703 121.252 18.5586 120.303 20.0586C119.365 21.5469 118.896 22.4844 118.896 22.8711C118.896 23.4102 118.996 23.7324 119.195 23.8379C119.395 23.9316 119.635 23.9668 119.916 23.9434C120.197 23.9199 120.59 23.7383 121.094 23.3984C121.609 23.0586 122.066 22.707 122.465 22.3438C123.109 21.7578 123.707 21.1895 124.258 20.6387C124.375 20.5332 124.504 20.4805 124.645 20.4805C124.867 20.4805 125.002 20.6504 125.049 20.9902C125.096 21.3301 125.119 21.6816 125.119 22.0449C125.119 22.4082 125.084 22.6602 125.014 22.8008C124.674 23.457 123.924 24.2598 122.764 25.209C121.604 26.1582 120.49 26.6328 119.424 26.6328C119.295 26.6328 119.201 26.627 119.143 26.6152C117.936 26.498 117.098 26.1699 116.629 25.6309C116.172 25.0801 115.943 24.4297 115.943 23.6797C115.943 22.9297 116.195 22.0215 116.699 20.9551C117.215 19.8887 117.777 18.9219 118.387 18.0547C118.996 17.1875 119.553 16.4082 120.057 15.7168C120.572 15.0137 120.83 14.6328 120.83 14.5742C120.83 14.5156 120.783 14.4863 120.689 14.4863C120.326 14.4863 119.518 15.0723 118.264 16.2441C116.119 18.248 114.268 20.1816 112.709 22.0449C112.299 22.5371 111.326 23.7852 109.791 25.7891C109.615 26.0234 109.334 26.1406 108.947 26.1406C108.572 26.1406 108.18 26.0703 107.77 25.9297C107.359 25.7773 107.154 25.584 107.154 25.3496C107.154 25.2324 108.086 23.5918 109.949 20.4277C111.812 17.252 112.744 15.5234 112.744 15.2422C112.744 14.9492 112.568 14.8027 112.217 14.8027C111.877 14.8027 111.168 15.3184 110.09 16.3496C107.125 19.1855 104.828 22.0039 103.199 24.8047C103.094 24.9688 102.889 25.2266 102.584 25.5781C102.279 25.9297 102.074 26.1055 101.969 26.1055ZM135.965 12.8516C135.965 13.625 135.648 14.3047 135.016 14.8906C134.395 15.4766 133.686 15.7695 132.889 15.7695C132.631 15.7695 132.461 15.7109 132.379 15.5938C132.297 15.4648 132.256 15.3008 132.256 15.1016C132.256 14.9023 132.279 14.709 132.326 14.5215C131.904 14.6621 131.436 14.8789 130.92 15.1719C130.404 15.4648 129.771 15.8984 129.021 16.4727C128.271 17.0469 127.896 17.4746 127.896 17.7559C127.896 17.8496 128.031 17.8965 128.301 17.8965C128.582 17.8965 129.01 17.8027 129.584 17.6152C130.158 17.416 130.557 17.3164 130.779 17.3164C131.014 17.3164 131.166 17.3281 131.236 17.3516C131.389 17.4336 131.553 17.6152 131.729 17.8965C131.904 18.166 131.992 18.3828 131.992 18.5469C131.992 18.6992 131.84 18.9043 131.535 19.1621C131.23 19.4199 130.885 19.6191 130.498 19.7598C130.111 19.8887 129.854 19.9883 129.725 20.0586C127.252 21.4414 126.016 22.3906 126.016 22.9062C126.016 23.8203 126.795 24.2773 128.354 24.2773C129.35 24.2773 130.352 23.9609 131.359 23.3281C132.215 22.7891 132.982 22.2441 133.662 21.6934C134.354 21.1309 134.787 20.7852 134.963 20.6562C135.15 20.5273 135.291 20.4629 135.385 20.4629C135.689 20.4629 135.842 20.8027 135.842 21.4824C135.842 22.1621 135.801 22.6133 135.719 22.8359C135.637 23.0469 135.402 23.3105 135.016 23.627C132.508 25.666 130.135 26.6855 127.896 26.6855C126.701 26.6855 125.746 26.5215 125.031 26.1934C123.719 25.5957 123.062 24.6816 123.062 23.4512C123.062 21.834 124.182 20.6094 126.42 19.7773C125.975 19.5781 125.688 19.3262 125.559 19.0215C125.43 18.7051 125.365 18.207 125.365 17.5273C125.365 16.8359 125.682 16.1094 126.314 15.3477C126.959 14.5742 127.744 13.9414 128.67 13.4492C130.732 12.3359 132.572 11.7793 134.189 11.7793C134.576 11.7793 134.969 11.873 135.367 12.0605C135.766 12.248 135.965 12.5117 135.965 12.8516ZM144.473 23.293C144.473 23.8086 144.824 24.0664 145.527 24.0664C145.902 24.0664 146.371 23.8789 146.934 23.5039C147.508 23.1289 148.023 22.7188 148.48 22.2734C149.699 21.0664 150.391 20.4629 150.555 20.4629C150.859 20.4629 151.012 20.9023 151.012 21.7812C151.012 22.6602 150.736 23.2637 150.186 23.5918C148.51 25.1035 147.215 26.0234 146.301 26.3516C145.785 26.5273 145.217 26.6094 144.596 26.5977C143.975 26.5859 143.359 26.3164 142.75 25.7891C142.141 25.2617 141.836 24.623 141.836 23.873C141.836 23.1113 142.035 22.25 142.434 21.2891C142.832 20.3281 143.236 19.5078 143.646 18.8281C144.068 18.1367 144.584 17.3398 145.193 16.4375C145.803 15.5234 146.125 14.9551 146.16 14.7324L146.125 14.6973C145.738 14.7324 144.777 15.4941 143.242 16.9824C141.719 18.4707 140.459 19.7656 139.463 20.8672C138.467 21.9688 137.277 23.4395 135.895 25.2793C135.508 25.7832 135.191 26.0352 134.945 26.0352C134.699 26.0352 134.371 25.959 133.961 25.8066C133.539 25.6426 133.281 25.5254 133.188 25.4551C133.094 25.3848 133.047 25.2793 133.047 25.1387C133.047 24.998 133.088 24.8281 133.17 24.6289C133.252 24.418 133.334 24.248 133.416 24.1191C133.486 23.9785 133.609 23.7676 133.785 23.4863C133.961 23.2051 134.307 22.6133 134.822 21.7109C135.35 20.7969 136.152 19.4375 137.23 17.6328C138.309 15.8281 138.953 14.7383 139.164 14.3633C139.609 13.5898 139.973 13.0273 140.254 12.6758C140.781 12.0078 141.672 11.6738 142.926 11.6738C143.207 11.6738 143.348 11.8496 143.348 12.2012C143.348 12.752 142.838 13.7891 141.818 15.3125L141.08 16.4199C143.107 14.1699 144.818 12.7461 146.213 12.1484C146.893 11.8555 147.502 11.709 148.041 11.709C148.592 11.709 149.025 11.8555 149.342 12.1484C149.67 12.4414 149.834 12.7695 149.834 13.1328C149.834 13.4844 149.711 13.9121 149.465 14.416C149.219 14.9082 148.967 15.3535 148.709 15.752C148.463 16.1387 148.135 16.6309 147.725 17.2285C147.314 17.8262 147.092 18.1543 147.057 18.2129C147.021 18.2598 146.928 18.4004 146.775 18.6348C146.635 18.8574 146.529 19.0215 146.459 19.127C146.389 19.2324 146.271 19.4199 146.107 19.6895C145.943 19.9473 145.809 20.1641 145.703 20.3398C145.609 20.5156 145.486 20.7324 145.334 20.9902C145.193 21.248 145.076 21.4707 144.982 21.6582C144.9 21.8457 144.812 22.0508 144.719 22.2734C144.555 22.6836 144.473 23.0234 144.473 23.293ZM161.453 12.8516C161.453 13.625 161.137 14.3047 160.504 14.8906C159.883 15.4766 159.174 15.7695 158.377 15.7695C158.119 15.7695 157.949 15.7109 157.867 15.5938C157.785 15.4648 157.744 15.3008 157.744 15.1016C157.744 14.9023 157.768 14.709 157.814 14.5215C157.393 14.6621 156.924 14.8789 156.408 15.1719C155.893 15.4648 155.26 15.8984 154.51 16.4727C153.76 17.0469 153.385 17.4746 153.385 17.7559C153.385 17.8496 153.52 17.8965 153.789 17.8965C154.07 17.8965 154.498 17.8027 155.072 17.6152C155.646 17.416 156.045 17.3164 156.268 17.3164C156.502 17.3164 156.654 17.3281 156.725 17.3516C156.877 17.4336 157.041 17.6152 157.217 17.8965C157.393 18.166 157.48 18.3828 157.48 18.5469C157.48 18.6992 157.328 18.9043 157.023 19.1621C156.719 19.4199 156.373 19.6191 155.986 19.7598C155.6 19.8887 155.342 19.9883 155.213 20.0586C152.74 21.4414 151.504 22.3906 151.504 22.9062C151.504 23.8203 152.283 24.2773 153.842 24.2773C154.838 24.2773 155.84 23.9609 156.848 23.3281C157.703 22.7891 158.471 22.2441 159.15 21.6934C159.842 21.1309 160.275 20.7852 160.451 20.6562C160.639 20.5273 160.779 20.4629 160.873 20.4629C161.178 20.4629 161.33 20.8027 161.33 21.4824C161.33 22.1621 161.289 22.6133 161.207 22.8359C161.125 23.0469 160.891 23.3105 160.504 23.627C157.996 25.666 155.623 26.6855 153.385 26.6855C152.189 26.6855 151.234 26.5215 150.52 26.1934C149.207 25.5957 148.551 24.6816 148.551 23.4512C148.551 21.834 149.67 20.6094 151.908 19.7773C151.463 19.5781 151.176 19.3262 151.047 19.0215C150.918 18.7051 150.854 18.207 150.854 17.5273C150.854 16.8359 151.17 16.1094 151.803 15.3477C152.447 14.5742 153.232 13.9414 154.158 13.4492C156.221 12.3359 158.061 11.7793 159.678 11.7793C160.064 11.7793 160.457 11.873 160.855 12.0605C161.254 12.248 161.453 12.5117 161.453 12.8516ZM175.445 12.4648C175.445 13.2734 174.994 14.457 174.092 16.0156C173.189 17.5625 172.029 19.1328 170.611 20.7266C169.205 22.3203 167.711 23.7031 166.129 24.875C164.547 26.0352 163.311 26.6152 162.42 26.6152C161.939 26.6152 161.5 26.4395 161.102 26.0879C160.703 25.7363 160.504 25.1797 160.504 24.418C160.504 23.6445 160.867 22.4316 161.594 20.7793C162.32 19.127 163.035 17.7324 163.738 16.5957C163.117 17.0527 162.736 17.2812 162.596 17.2812C162.467 17.2812 162.297 17.1289 162.086 16.8242C161.887 16.5195 161.787 16.2852 161.787 16.1211C161.787 15.9453 161.816 15.8164 161.875 15.7344C164.184 13.168 165.812 11.8848 166.762 11.8848C167.16 11.8848 167.494 12.002 167.764 12.2363C168.033 12.4707 168.168 12.752 168.168 13.0801C168.168 13.4082 167.77 14.3516 166.973 15.9102C166.176 17.4688 165.379 19.0449 164.582 20.6387C163.785 22.2207 163.387 23.2168 163.387 23.627C163.387 23.6973 163.422 23.7324 163.492 23.7324C163.797 23.7324 164.617 23.1289 165.953 21.9219C167.301 20.7031 168.391 19.5723 169.223 18.5293C170.055 17.4863 170.781 16.4375 171.402 15.3828C172.035 14.3281 172.352 13.6367 172.352 13.3086C172.352 12.9805 172.281 12.7109 172.141 12.5C172.012 12.2773 171.947 12.043 171.947 11.7969C171.947 11.5391 172.117 11.2578 172.457 10.9531C172.809 10.6367 173.254 10.4785 173.793 10.4785C174.895 10.4785 175.445 11.1406 175.445 12.4648Z" fill="black"/>
</svg>
