<svg width="40" height="42" viewBox="0 0 40 42" fill="none" xmlns="http://www.w3.org/2000/svg">
<path d="M0 4.42105C0 1.97927 1.98985 0 4.44444 0H22.2222C24.6768 0 26.6667 1.97927 26.6667 4.42105V17.6842C26.6667 20.126 24.6768 22.1053 22.2222 22.1053H15.5556L4.44444 30.9474L6.66667 22.1053H4.44444C1.98985 22.1053 0 20.126 0 17.6842V4.42105Z" fill="white"/>
<path d="M13.3333 28.7368V26.5263H22.2222C26.6667 26.5263 31.1111 24.3158 31.1111 19.8947V11.0526H35.5556C38.0102 11.0526 40 13.0319 40 15.4737V28.7368C40 31.1786 38.0102 33.1579 35.5556 33.1579H33.3333L35.5556 42L24.4444 33.1579H17.7778C15.3232 33.1579 13.3333 31.1786 13.3333 28.7368Z" fill="white"/>
</svg>