<svg width="32" height="19" viewBox="0 0 32 19" fill="none" xmlns="http://www.w3.org/2000/svg">
<path d="M26.5427 10.6997C26.0256 10.0466 26.1735 9.7561 26.5427 9.17233C26.5494 9.16567 30.8183 3.26669 31.2582 1.26616L31.2608 1.26483C31.4794 0.535786 31.2608 0 30.2039 0H26.7066C25.8163 0 25.4058 0.459816 25.1859 0.974277C25.1859 0.974277 23.4053 5.23657 20.8863 7.99947C20.0733 8.79781 19.6975 9.05371 19.2536 9.05371C19.0351 9.05371 18.6952 8.79781 18.6952 8.06877V1.26483C18.6952 0.39051 18.446 0 17.7089 0H12.2098C11.6513 0 11.3195 0.407837 11.3195 0.787685C11.3195 1.61669 12.579 1.80728 12.7096 4.13968V9.20032C12.7096 10.3092 12.5083 10.5131 12.0618 10.5131C10.873 10.5131 7.98747 6.23351 6.27749 1.33547C5.93229 0.385179 5.5951 0.0013327 4.69812 0.0013327H1.19952C0.201253 0.0013327 0 0.461149 0 0.97561C0 1.88458 1.18886 6.40411 5.52845 12.3751C8.42063 16.4508 12.4937 18.6592 16.1989 18.6592C18.426 18.6592 18.6979 18.1687 18.6979 17.3251C18.6979 13.4306 18.4966 13.0628 19.6122 13.0628C20.1293 13.0628 21.0196 13.3187 23.0988 15.2846C25.4751 17.6156 25.8657 18.6592 27.1958 18.6592H30.6931C31.69 18.6592 32.1951 18.1687 31.9046 17.2011C31.2395 15.1659 26.7453 10.9796 26.5427 10.6997Z" fill="black"/>
</svg>
