<svg width="27" height="19" viewBox="0 0 27 19" fill="none" xmlns="http://www.w3.org/2000/svg">
<path fill-rule="evenodd" clip-rule="evenodd" d="M23.3344 1.19254C24.4263 1.49217 25.2862 2.37501 25.578 3.49615C26.1083 5.52807 26.1083 9.7677 26.1083 9.7677C26.1083 9.7677 26.1083 14.0072 25.578 16.0392C25.2862 17.1604 24.4263 18.0432 23.3344 18.343C21.3556 18.8874 13.4201 18.8874 13.4201 18.8874C13.4201 18.8874 5.48457 18.8874 3.50564 18.343C2.41373 18.0432 1.55381 17.1604 1.26198 16.0392C0.731812 14.0072 0.731812 9.7677 0.731812 9.7677C0.731812 9.7677 0.731812 5.52807 1.26198 3.49615C1.55381 2.37501 2.41373 1.49217 3.50564 1.19254C5.48457 0.64801 13.4201 0.64801 13.4201 0.64801C13.4201 0.64801 21.3556 0.64801 23.3344 1.19254ZM11.041 6.19904V14.1292L17.3852 10.1643L11.041 6.19904Z" fill="black"/>
</svg>