<svg width="27" height="26" viewBox="0 0 27 26" fill="none" xmlns="http://www.w3.org/2000/svg">
<rect x="0.268066" width="26" height="26" rx="13" fill="#AFDCF0"/>
<path d="M9.48487 13.5216H11.2387V20.7419C11.2387 20.8845 11.3542 21 11.4968 21H14.4705C14.6131 21 14.7286 20.8845 14.7286 20.7419V13.5556H16.7448C16.8759 13.5556 16.9862 13.4572 17.0012 13.327L17.3074 10.6689C17.3158 10.5957 17.2926 10.5225 17.2437 10.4676C17.1947 10.4127 17.1246 10.3813 17.0511 10.3813H14.7287V8.71499C14.7287 8.2127 14.9991 7.95799 15.5326 7.95799C15.6086 7.95799 17.0511 7.95799 17.0511 7.95799C17.1936 7.95799 17.3091 7.84243 17.3091 7.69992V5.25997C17.3091 5.11742 17.1936 5.00191 17.0511 5.00191H14.9584C14.9437 5.00119 14.9109 5 14.8626 5C14.4995 5 13.2374 5.07128 12.2404 5.98844C11.1358 7.0048 11.2894 8.22173 11.3261 8.43272V10.3812H9.48487C9.34232 10.3812 9.22681 10.4967 9.22681 10.6393V13.2635C9.22681 13.406 9.34232 13.5216 9.48487 13.5216Z" fill="#C5E9F8"/>
</svg>
