<svg width="27" height="26" viewBox="0 0 27 26" fill="none">
<g clip-path="url(#clip0)">
<path d="M15.7559 13C15.7559 14.3743 14.6418 15.4883 13.2676 15.4883C11.8933 15.4883 10.7793 14.3743 10.7793 13C10.7793 11.6257 11.8933 10.5117 13.2676 10.5117C14.6418 10.5117 15.7559 11.6257 15.7559 13Z" fill="#AFDCF0"/>
<path d="M19.0869 8.5981C18.9672 8.27397 18.7764 7.98059 18.5285 7.73978C18.2876 7.49182 17.9945 7.30099 17.6701 7.18138C17.4071 7.07922 17.012 6.95763 16.2842 6.9245C15.4969 6.8886 15.2608 6.88086 13.2676 6.88086C11.2743 6.88086 11.0382 6.8884 10.2511 6.9243C9.52332 6.95763 9.12798 7.07922 8.86514 7.18138C8.54082 7.30099 8.24744 7.49182 8.00682 7.73978C7.75887 7.98059 7.56804 8.27377 7.44823 8.5981C7.34607 8.86113 7.22447 9.25647 7.19135 9.98427C7.15544 10.7714 7.14771 11.0074 7.14771 13.0008C7.14771 14.994 7.15544 15.23 7.19135 16.0173C7.22447 16.7451 7.34607 17.1403 7.44823 17.4033C7.56804 17.7276 7.75867 18.0208 8.00662 18.2616C8.24744 18.5096 8.54062 18.7004 8.86494 18.82C9.12798 18.9224 9.52332 19.044 10.2511 19.0771C11.0382 19.113 11.2741 19.1205 13.2674 19.1205C15.261 19.1205 15.4971 19.113 16.284 19.0771C17.0118 19.044 17.4071 18.9224 17.6701 18.82C18.3212 18.5689 18.8357 18.0543 19.0869 17.4033C19.189 17.1403 19.3106 16.7451 19.3439 16.0173C19.3798 15.23 19.3874 14.994 19.3874 13.0008C19.3874 11.0074 19.3798 10.7714 19.3439 9.98427C19.3108 9.25647 19.1892 8.86113 19.0869 8.5981ZM13.2676 16.8338C11.1505 16.8338 9.43425 15.1177 9.43425 13.0006C9.43425 10.8835 11.1505 9.1674 13.2676 9.1674C15.3846 9.1674 17.1008 10.8835 17.1008 13.0006C17.1008 15.1177 15.3846 16.8338 13.2676 16.8338ZM17.2524 9.91167C16.7577 9.91167 16.3566 9.51057 16.3566 9.01585C16.3566 8.52113 16.7577 8.12004 17.2524 8.12004C17.7471 8.12004 18.1482 8.52113 18.1482 9.01585C18.148 9.51057 17.7471 9.91167 17.2524 9.91167Z" fill="#AFDCF0"/>
<path d="M13.2676 0C6.08897 0 0.267578 5.8214 0.267578 13C0.267578 20.1786 6.08897 26 13.2676 26C20.4462 26 26.2676 20.1786 26.2676 13C26.2676 5.8214 20.4462 0 13.2676 0ZM20.6874 16.0776C20.6513 16.8723 20.5249 17.4148 20.3405 17.8897C19.9527 18.8924 19.16 19.6851 18.1573 20.0729C17.6826 20.2574 17.1398 20.3835 16.3454 20.4198C15.5494 20.4561 15.2951 20.4648 13.2678 20.4648C11.2403 20.4648 10.9862 20.4561 10.19 20.4198C9.39551 20.3835 8.85278 20.2574 8.3781 20.0729C7.87981 19.8854 7.42873 19.5916 7.0558 19.2118C6.67613 18.8391 6.38235 18.3878 6.1949 17.8897C6.01042 17.415 5.88406 16.8723 5.84796 16.0778C5.81126 15.2816 5.80273 15.0273 5.80273 13C5.80273 10.9727 5.81126 10.7184 5.84776 9.92238C5.88387 9.12773 6.01003 8.58521 6.1945 8.11032C6.38196 7.61223 6.67593 7.16095 7.0558 6.78822C7.42853 6.40836 7.87981 6.11458 8.3779 5.92712C8.85278 5.74265 9.39531 5.61649 10.19 5.58018C10.986 5.54388 11.2403 5.53516 13.2676 5.53516C15.2949 5.53516 15.5492 5.54388 16.3452 5.58038C17.1398 5.61649 17.6824 5.74265 18.1573 5.92693C18.6553 6.11438 19.1066 6.40836 19.4796 6.78822C19.8592 7.16115 20.1532 7.61223 20.3405 8.11032C20.5251 8.58521 20.6513 9.12773 20.6876 9.92238C20.7239 10.7184 20.7324 10.9727 20.7324 13C20.7324 15.0273 20.7239 15.2816 20.6874 16.0776Z" fill="#AFDCF0"/>
</g>
<defs>
<clipPath id="clip0">
<rect width="26" height="26" fill="white" transform="translate(0.267578)"/>
</clipPath>
</defs>
</svg>
