<svg width="109" height="30" viewBox="0 0 109 30" fill="none" xmlns="http://www.w3.org/2000/svg">
<path d="M106.811 8.0925L100.889 21.4597L94.9668 8.05943C94.8131 7.6616 94.5281 7.4632 94.112 7.4632C93.8486 7.4632 93.6026 7.55723 93.3719 7.7453C93.1423 7.93337 93.0265 8.15967 93.0265 8.42524C93.0265 8.55854 93.0593 8.6908 93.1249 8.82307L99.8694 23.6163L97.5334 28.7581C97.4678 28.8914 97.435 29.0227 97.435 29.156C97.435 29.3988 97.5283 29.5982 97.7149 29.7532C97.9014 29.9072 98.1146 29.9847 98.3555 29.9847C98.7501 29.9847 99.0351 29.7966 99.2114 29.4215L108.521 8.8241C108.587 8.69183 108.62 8.5482 108.62 8.3932C108.62 8.15037 108.521 7.93957 108.325 7.76287C108.127 7.58617 107.907 7.4973 107.667 7.4973C107.271 7.49627 106.986 7.69467 106.811 8.0925ZM83.6478 22.3546C81.9586 22.3546 80.665 21.7904 79.7661 20.663C78.8661 19.5356 78.4172 17.9102 78.4172 15.7877C78.4172 13.7097 78.8784 12.0894 79.7989 10.929C80.7193 9.76753 82.0139 9.18784 83.6806 9.18784C85.3257 9.18784 86.6141 9.76857 87.5458 10.929C88.4786 12.0894 88.9439 13.7097 88.9439 15.7877C88.9439 17.9112 88.4837 19.5356 87.5622 20.663C86.6418 21.7904 85.337 22.3546 83.6478 22.3546ZM83.6806 24.1464C85.1289 24.1464 86.4112 23.8033 87.5305 23.1182C88.6498 22.4321 89.5097 21.4597 90.1135 20.199C90.7162 18.9384 91.0175 17.4679 91.0175 15.7877C91.0175 14.1075 90.7162 12.6361 90.1135 11.3764C89.5097 10.1158 88.6498 9.1434 87.5305 8.45727C86.4122 7.77114 85.1289 7.4291 83.6806 7.4291C82.2107 7.4291 80.9223 7.77217 79.8153 8.45727C78.7073 9.14237 77.8463 10.1158 77.2323 11.3764C76.6183 12.6361 76.3108 14.1065 76.3108 15.7877C76.3108 17.4679 76.6183 18.9384 77.2323 20.199C77.8463 21.4597 78.7073 22.4321 79.8153 23.1182C80.9223 23.8033 82.2117 24.1464 83.6806 24.1464ZM71.0485 3.74733C71.4861 3.74733 71.8439 3.61404 72.1175 3.3495C72.3912 3.08497 72.5286 2.7419 72.5286 2.32237C72.5286 1.8801 72.3912 1.52567 72.1175 1.26114C71.8439 0.995569 71.4861 0.862269 71.0485 0.862269C70.6087 0.862269 70.2531 0.995569 69.9784 1.26114C69.7047 1.52567 69.5673 1.8801 69.5673 2.32237C69.5673 2.7419 69.7047 3.08497 69.9784 3.3495C70.252 3.61507 70.6087 3.74733 71.0485 3.74733ZM66.2443 29.9496L67.133 29.8845C68.8211 29.7729 70.0614 29.2707 70.8506 28.3748C71.6399 27.4789 72.0355 26.0911 72.0355 24.2125V8.52444C72.0355 8.19273 71.9474 7.93853 71.7721 7.76183C71.5958 7.58513 71.356 7.49627 71.0485 7.49627C70.741 7.49627 70.4939 7.58513 70.3084 7.76183C70.1219 7.93853 70.0286 8.19273 70.0286 8.52444V24.3127C70.0286 25.6829 69.7652 26.6615 69.2393 27.2474C68.7125 27.8323 67.9007 28.1588 66.8039 28.226L65.9153 28.2921C65.2798 28.3582 64.961 28.6455 64.961 29.1539C64.961 29.7512 65.3894 30.0167 66.2443 29.9496ZM63.7443 24.0802C64.0293 24.0802 64.266 23.9914 64.4516 23.8147C64.6381 23.638 64.7314 23.3838 64.7314 23.0521V1.3934C64.7314 1.0617 64.6381 0.807502 64.4516 0.629769C64.265 0.454102 64.0293 0.365234 63.7443 0.365234C63.4368 0.365234 63.1908 0.454102 63.0043 0.629769C62.8177 0.807502 62.7244 1.0617 62.7244 1.3934V23.0521C62.7244 23.3838 62.8177 23.638 63.0043 23.8147C63.1908 23.9914 63.4368 24.0802 63.7443 24.0802ZM50.6499 22.3887C49.6188 22.3887 48.7527 22.0849 48.0505 21.4762C47.3484 20.8686 46.9979 20.0998 46.9979 19.1709C46.9979 18.3535 47.2275 17.7283 47.6887 17.2974C48.1489 16.8655 48.9382 16.5627 50.0575 16.385C51.1758 16.2083 52.7881 16.1205 54.8945 16.1205H55.5197V17.2148C55.5197 18.7183 55.0636 19.9572 54.1544 20.9296C53.2442 21.902 52.0757 22.3887 50.6499 22.3887ZM51.7364 7.4291C50.815 7.4291 49.8832 7.55103 48.9402 7.79387C47.9972 8.0367 47.1414 8.37977 46.3736 8.82204C45.6059 9.28703 45.2215 9.76237 45.2215 10.248C45.2215 10.4909 45.2923 10.6955 45.4358 10.8618C45.5782 11.0282 45.7586 11.1109 45.979 11.1109C46.1758 11.1109 46.4116 11.0168 46.6863 10.8288C46.9599 10.6417 47.1301 10.525 47.1957 10.4805C48.6655 9.6177 50.2112 9.1868 51.8348 9.1868C53.1069 9.1868 54.0396 9.52367 54.631 10.1984C55.2225 10.8742 55.5197 11.9396 55.5197 13.3987V14.6263H54.8289C52.2623 14.6263 50.2666 14.7709 48.8408 15.0582C47.415 15.3455 46.3952 15.826 45.7812 16.5007C45.1672 17.1755 44.871 18.12 44.8925 19.3362C44.8925 20.2435 45.1447 21.0608 45.649 21.7904C46.1533 22.5209 46.8277 23.0955 47.6723 23.515C48.5169 23.9345 49.4538 24.1453 50.4859 24.1453C51.6257 24.1453 52.6343 23.8746 53.5117 23.3321C54.3891 22.7906 55.0585 22.0218 55.5187 21.0267V23.0169C55.5187 23.3259 55.6058 23.576 55.7821 23.763C55.9574 23.9511 56.1983 24.0451 56.5058 24.0451C56.8133 24.0451 57.0541 23.9511 57.2294 23.763C57.4047 23.5749 57.4928 23.3259 57.4928 23.0169V13.564C57.4928 11.5077 57.0162 9.9711 56.0619 8.95327C55.1087 7.93853 53.6655 7.4291 51.7364 7.4291ZM34.5626 9.0876C36.0755 9.0876 37.2491 9.5681 38.0824 10.5301C38.9157 11.4922 39.3544 12.8572 39.3975 14.6263H29.2336C29.4089 12.8799 29.9572 11.5201 30.8787 10.5467C31.7992 9.5743 33.0271 9.0876 34.5626 9.0876ZM40.3528 20.4646C40.156 20.4646 39.8157 20.631 39.3339 20.9616C38.6093 21.3822 37.9297 21.7201 37.2942 21.9733C36.6577 22.2275 35.8684 22.3546 34.9254 22.3546C33.1265 22.3546 31.7346 21.8234 30.7475 20.7622C29.7604 19.701 29.2346 18.1541 29.169 16.1194H40.1252C40.5199 16.1194 40.8048 16.0254 40.9811 15.8373C41.1564 15.6493 41.2435 15.3568 41.2435 14.959C41.2435 12.6154 40.6459 10.775 39.4508 9.43584C38.2546 8.0987 36.6269 7.4291 34.5656 7.4291C33.0958 7.4291 31.7961 7.77734 30.6665 8.4738C29.536 9.1713 28.6596 10.154 28.0343 11.426C27.4091 12.6981 27.0975 14.1623 27.0975 15.8208C27.0975 18.4072 27.7986 20.4429 29.2039 21.9237C30.6071 23.4055 32.5269 24.1464 34.9613 24.1464C36.7161 24.1464 38.3838 23.671 39.9623 22.7193C40.7074 22.2554 41.0816 21.78 41.0816 21.2933C41.0816 21.0722 41.0098 20.879 40.8673 20.7126C40.7208 20.5473 40.5506 20.4646 40.3528 20.4646ZM17.6193 7.4291C16.3914 7.4291 15.3049 7.7112 14.3629 8.2754C13.4199 8.83857 12.7167 9.61874 12.2575 10.6138C11.5113 8.49034 9.87748 7.4291 7.35496 7.4291C6.21516 7.4291 5.21066 7.6895 4.34453 8.20927C3.47738 8.72904 2.81421 9.48647 2.35398 10.4816V8.49137C2.35398 8.18137 2.27096 7.93853 2.10798 7.76183C1.94296 7.58513 1.70721 7.49627 1.40073 7.49627C1.09323 7.49627 0.846209 7.58513 0.660684 7.76183C0.474134 7.93853 0.380859 8.19273 0.380859 8.52444V23.0521C0.380859 23.361 0.473109 23.6111 0.660684 23.7981C0.847234 23.9862 1.09323 24.0802 1.40073 24.0802C1.70823 24.0802 1.94808 23.9862 2.12438 23.7981C2.29966 23.6101 2.38781 23.361 2.38781 23.0521V14.5942C2.38781 12.9585 2.81011 11.6534 3.65471 10.68C4.49828 9.7076 5.63296 9.2209 7.05976 9.2209C8.30923 9.2209 9.21943 9.5805 9.79036 10.2987C10.3603 11.0168 10.6462 12.1845 10.6462 13.7975V23.0521C10.6462 23.361 10.7385 23.6111 10.9261 23.7981C11.1126 23.9862 11.3586 24.0802 11.6661 24.0802C11.9726 24.0802 12.2135 23.9862 12.3898 23.7981C12.565 23.6101 12.6522 23.361 12.6522 23.0521V14.5942C12.6522 12.9585 13.0745 11.6534 13.9191 10.68C14.7626 9.7076 15.8983 9.2209 17.3241 9.2209C18.5746 9.2209 19.4838 9.5805 20.0547 10.2987C20.6256 11.0168 20.9106 12.1845 20.9106 13.7975V23.0521C20.9106 23.361 21.0039 23.6111 21.1904 23.7981C21.377 23.9862 21.623 24.0802 21.9305 24.0802C22.238 24.0802 22.4788 23.9862 22.6541 23.7981C22.8294 23.6101 22.9175 23.361 22.9175 23.0521V13.6653C22.9165 9.50817 21.1504 7.4291 17.6193 7.4291Z" fill="black"/>
</svg>
