<svg width="27" height="26" viewBox="0 0 27 26" fill="none" xmlns="http://www.w3.org/2000/svg">
<g clip-path="url(#clip0)">
<rect width="26" height="26" rx="13" fill="#AFDCF0"/>
<path fill-rule="evenodd" clip-rule="evenodd" d="M12.0851 17.6935H13.1054C13.1054 17.6935 13.4136 17.6597 13.571 17.49C13.7158 17.3343 13.7112 17.0419 13.7112 17.0419C13.7112 17.0419 13.6913 15.6728 14.3267 15.4711C14.9531 15.2725 15.7574 16.7944 16.61 17.3795C17.2547 17.8223 17.7446 17.7252 17.7446 17.7252L20.0242 17.6935C20.0242 17.6935 21.2167 17.62 20.6513 16.6824C20.6049 16.6057 20.322 15.9888 18.9563 14.7212C17.527 13.3945 17.7184 13.6091 19.4402 11.3142C20.4888 9.91663 20.908 9.06337 20.7771 8.69792C20.6522 8.34985 19.881 8.44185 19.881 8.44185L17.3142 8.45784C17.3142 8.45784 17.124 8.43189 16.9829 8.51624C16.845 8.59897 16.7562 8.79178 16.7562 8.79178C16.7562 8.79178 16.35 9.87329 15.8082 10.7931C14.6653 12.7339 14.2083 12.8363 14.0215 12.7158C13.587 12.4349 13.6954 11.5875 13.6954 10.9854C13.6954 9.10462 13.9807 8.32042 13.14 8.11742C12.8609 8.04998 12.6556 8.00549 11.9421 7.99831C11.0263 7.98881 10.2511 8.00109 9.81221 8.21614C9.52022 8.35912 9.29497 8.67776 9.43216 8.69607C9.60179 8.71878 9.98601 8.79965 10.1897 9.07704C10.4527 9.43485 10.4435 10.2385 10.4435 10.2385C10.4435 10.2385 10.5946 12.4525 10.0905 12.7276C9.74454 12.9162 9.26994 12.5311 8.25099 10.7703C7.72889 9.86843 7.3347 8.87149 7.3347 8.87149C7.3347 8.87149 7.2587 8.68518 7.12313 8.58553C6.9586 8.46479 6.72871 8.42633 6.72871 8.42633L4.28968 8.44231C4.28968 8.44231 3.92353 8.45251 3.78912 8.61172C3.66955 8.75331 3.77962 9.04622 3.77962 9.04622C3.77962 9.04622 5.68914 13.5137 7.85125 15.765C9.83376 17.8291 12.0851 17.6935 12.0851 17.6935Z" fill="#C5E9F8"/>
</g>
<defs>
<clipPath id="clip0">
<rect width="26" height="26" fill="white" transform="translate(0.268066)"/>
</clipPath>
</defs>
</svg>
