<?xml version="1.0" standalone="no"?>
<!DOCTYPE svg PUBLIC "-//W3C//DTD SVG 20010904//EN"
 "http://www.w3.org/TR/2001/REC-SVG-20010904/DTD/svg10.dtd">
<svg version="1.0" xmlns="http://www.w3.org/2000/svg"
 width="400.000000pt" height="400.000000pt" viewBox="0 0 400.000000 400.000000"
 preserveAspectRatio="xMidYMid meet">
<metadata>
Created by potrace 1.11, written by Peter Selinger 2001-2013
</metadata>
<g transform="translate(0.000000,400.000000) scale(0.100000,-0.100000)"
fill="#000000" stroke="none">
<path d="M0 2000 l0 -2000 2000 0 2000 0 0 2000 0 2000 -2000 0 -2000 0 0
-2000z m657 1456 c54 -29 130 -70 168 -91 39 -21 93 -50 120 -65 28 -15 214
-116 415 -225 201 -108 496 -268 655 -355 160 -86 326 -176 370 -200 44 -24
181 -98 305 -165 124 -67 331 -180 460 -250 129 -70 261 -141 293 -158 31 -18
57 -36 57 -42 -1 -13 -769 -395 -796 -395 -11 0 -24 4 -29 9 -6 4 -140 75
-300 156 -159 81 -348 178 -420 215 -71 37 -215 111 -320 165 -104 54 -305
156 -445 229 -140 72 -342 176 -450 231 l-195 100 -3 448 c-1 293 1 447 8 447
5 0 54 -24 107 -54z m853 -1591 c523 -261 950 -478 949 -483 0 -8 -1876 -945
-1903 -950 -15 -3 -16 74 -16 952 0 632 3 956 10 956 6 0 438 -214 960 -475z"/>
</g>
</svg>
